<?xml version="1.0" encoding="UTF-8" standalone="no"?>
<svg
   version="1.1"
   viewBox="0 0 432 418"
   id="svg107"
   sodipodi:docname="FAVICONv2.svg"
   inkscape:version="1.4 (86a8ad7, 2024-10-11)"
   width="432"
   height="418"
   xmlns:inkscape="http://www.inkscape.org/namespaces/inkscape"
   xmlns:sodipodi="http://sodipodi.sourceforge.net/DTD/sodipodi-0.dtd"
   xmlns="http://www.w3.org/2000/svg"
   xmlns:svg="http://www.w3.org/2000/svg">
  <defs
     id="defs107">
    <linearGradient
       id="swatch111"
       inkscape:swatch="solid">
      <stop
         style="stop-color:#54aadf;stop-opacity:1;"
         offset="0"
         id="stop111" />
    </linearGradient>
  </defs>
  <sodipodi:namedview
     id="namedview107"
     pagecolor="#505050"
     bordercolor="#eeeeee"
     borderopacity="1"
     inkscape:showpageshadow="0"
     inkscape:pageopacity="0"
     inkscape:pagecheckerboard="0"
     inkscape:deskcolor="#505050"
     inkscape:zoom="1.3341863"
     inkscape:cx="360.89413"
     inkscape:cy="261.58266"
     inkscape:window-width="1920"
     inkscape:window-height="1052"
     inkscape:window-x="-8"
     inkscape:window-y="-8"
     inkscape:window-maximized="1"
     inkscape:current-layer="svg107" />
  <path
     fill="#54aadf"
     d="m 165.36356,396.23562 c -85.750001,-21.72 -151.590003,-99.19 -148.300003,-189.79 3.86,-106.610001 93.410003,-187.250007 199.480003,-186.750007 a 0.88,0.88 0 0 1 0.88,0.88 l -0.06,74.440006 a 0.43,0.43 0 0 1 -0.43,0.43 c -87.29,0.43 -150.310003,88.660001 -107.24,169.060001 21.25,39.67 64.93,63.59 109.79,62.13 q 57.13,-1.86 93.88,-46.56 a 0.56,0.56 0 0 1 0.73,-0.12 l 64.73,40.87 a 1.04,1.04 0 0 1 0.26,1.52 c -50.83,65.62 -132.82,94.39 -213.72,73.89 z"
     id="ARCO_CYAN"
     style="display:inline" />
  <path
     stroke="#a6a07e"
     vector-effect="non-scaling-stroke"
     d="m 17.063557,206.44562 c -3.29,90.6 62.550002,168.07 148.300003,189.79 80.9,20.5 162.89,-8.27 213.72,-73.89 a 1.04,1.04 0 0 0 -0.26,-1.52 l -64.73,-40.87 a 0.56,0.56 0 0 0 -0.73,0.12 q -36.75,44.7 -93.88,46.56 c -44.86,1.46 -88.54,-22.46 -109.79,-62.13 -43.070003,-80.4 19.95,-168.630001 107.24,-169.060001 a 0.43,0.43 0 0 0 0.43,-0.43 l 0.06,-74.440006 a 0.88,0.88 0 0 0 -0.88,-0.88 c -106.07,-0.5 -195.620003,80.140006 -199.480003,186.750007"
     id="path43"
     style="display:none;fill:none;stroke-width:2;stroke-linecap:butt"
     inkscape:label="ARCO_CYAN_BORDE" />
  <path
     stroke="#fcca8e"
     vector-effect="non-scaling-stroke"
     d="m 182.29356,183.71562 35.78,25.11 a 0.57,0.58 25.2 0 0 0.89,-0.33 l 22.63,-84.17 a 0.74,0.74 0 0 0 -0.55,-0.91 q -45.66,-10.28 -81.7,15.66 c -30.02,21.6 -44.27,60.15 -34.17,95.37 13.33,46.47 59.87,73.77 107.18,66.07 73.54,-11.96 105.8,-99.13 51.08,-153.31 q -0.83,-0.81 -1.05,0.32 -13.46,67.48 -26.81,135.51 c -0.82,4.18 -2.14,5.99 -6.4,6.41 q -4.52,0.45 -7.11,-2.67 -27.48,-32.99 -55.37,-65.63 a 0.44,0.44 0 0 0 -0.67,-0.01 q -16.85,19.01 -33.16,38.5 c -3.94,4.7 -9.88,0.97 -7,-4.75 q 17.79,-35.39 35.39,-70.92 a 0.71,0.7 30.8 0 1 1.04,-0.25"
     id="path44"
     style="display:inline;fill:none;stroke-width:2;stroke-linecap:butt"
     inkscape:label="ARCO_BORDE_INT" />
  <path
     stroke="#fcca8e"
     vector-effect="non-scaling-stroke"
     d="m 339.08356,51.105619 q -63.61,-43.7800061 -141.39,-37.460006 c -89.9,7.31 -169.010003,73.100006 -184.930003,163.170007 -22.5100001,127.44 80.750002,233.3 205.160003,232.87 85.74,-0.3 165.04,-52.86 194.19,-134.05 26.3,-73.27 5.41,-152.46 -50.52,-205.870001 a 1.86,1.86 0 0 1 -0.44,-2.04 l 22.59,-57.070006 a 1.1,1.16 42.2 0 0 -0.02,-0.9100001 c -2.64,-5.4 -8.38,-3.24 -11.36,0.6400001 q -13.15,17.120004 -32.56,40.620006 a 0.53,0.54 37.6 0 1 -0.72,0.1"
     id="path2"
     style="display:none;fill:none;stroke-width:2;stroke-linecap:butt"
     inkscape:label="ARCO_BORDE_EXT" />
  <path
     fill="#f8951d"
     d="m 339.80356,51.005619 c 12.94,-15.666672 23.79333,-29.206676 32.56,-40.620006 2.98,-3.8800001 8.67313,-5.7275001 10.43813,-0.9056201 0.46168,1.6553601 -0.31232,3.6261201 -0.43313,3.9256201 l -21.215,54.320006 c -0.28456,0.70597 -0.11026,1.51409 0.44,2.04 55.93,53.410001 76.82,132.600001 50.52,205.870001 -29.15,81.19 -108.45,133.75 -194.19,134.05 -124.410001,0.43 -227.6700031,-105.43 -205.160003,-232.87 15.92,-90.070001 95.030003,-155.860007 184.930003,-163.170007 51.85333,-4.2133301 98.98333,8.27333 141.39,37.460006 0.22576,0.16031 0.53945,0.11674 0.72,-0.1 z M 153.6147,247.64602 l -2.08196,4.15749 c -0.7112,1.45113 -3.38918,7.39211 -1.98918,5.78211 12.1,-13.92 24.19,-27.98333 36.27,-42.19 0.22721,-0.26111 0.63279,-0.26111 0.86,0 19.18667,22.62 38.27667,45.15 57.27,67.59 1.86,2.21 2.75,3.99 6.2,2.72 0.73986,-0.27368 1.28503,-0.91349 1.44,-1.69 l 37.49,-189.340001 c 0.12,-0.58667 0.38,-0.66 0.78,-0.22 l 38.66,42.520001 c 0.28978,0.31904 0.81398,0.22177 0.97,-0.18 l 50.01,-124.890007 c 0.12937,-0.32956 0.18186,-0.61136 0.0912,-0.89531 -0.57,-1.7500001 -2.28499,-0.70407 -3.06499,0.27593 -19.3,23.966674 -38.45958,47.919386 -57.66625,72.139386 -0.17953,0.22144 -0.50206,0.26121 -0.73,0.09 l -50.54,-38.69 c -0.2826,-0.20939 -0.68733,-0.0693 -0.78,0.27 l -45.66,169.110001 c -0.13801,0.51925 -0.75195,0.74109 -1.19,0.43 l -36.31,-25.46 c -0.33555,-0.23566 -0.80457,-0.11248 -0.99,0.26 z M 17.063557,206.44562 c -3.29,90.6 62.550002,168.07 148.300003,189.79 80.9,20.5 162.89,-8.27 213.72,-73.89 0.37996,-0.48384 0.25918,-1.18996 -0.26,-1.52 l -64.73,-40.87 c -0.23888,-0.1493 -0.55148,-0.0979 -0.73,0.12 -24.5,29.8 -55.79333,45.32 -93.88,46.56 -44.86,1.46 -88.54,-22.46 -109.79,-62.13 -43.070003,-80.4 19.95,-168.630001 107.24,-169.060001 0.23748,0 0.43,-0.19252 0.43,-0.43 l 0.06,-74.440006 c 0,-0.48601 -0.39399,-0.88 -0.88,-0.88 -106.07,-0.5 -195.620003,80.140006 -199.480003,186.750007 z m 165.230003,-22.73 35.78,25.11 c 0.3247,0.23557 0.78648,0.0643 0.89,-0.33 l 22.63,-84.17 c 0.10663,-0.40424 -0.14253,-0.81649 -0.55,-0.91 -30.44,-6.85333 -57.67333,-1.63333 -81.7,15.66 -30.02,21.6 -44.27,60.15 -34.17,95.37 13.33,46.47 59.87,73.77 107.18,66.07 73.54,-11.96 105.8,-99.13 51.08,-153.31 -0.55333,-0.54 -0.90333,-0.43333 -1.05,0.32 -8.97333,44.98667 -17.91,90.15667 -26.81,135.51 -0.82,4.18 -2.14,5.99 -6.4,6.41 -3.01333,0.3 -5.38333,-0.59 -7.11,-2.67 -18.32,-21.99333 -36.77667,-43.87 -55.37,-65.63 -0.17259,-0.20897 -0.49125,-0.21373 -0.67,-0.01 -11.23333,12.67333 -22.28667,25.50667 -33.16,38.5 -1.88245,2.24556 -4.22145,2.56678 -5.83692,1.66603 -1.76573,-0.98453 -2.66707,-3.42893 -1.16308,-6.41603 11.86,-23.59333 23.65667,-47.23333 35.39,-70.92 0.19251,-0.38301 0.68541,-0.5015 1.04,-0.25 z"
     id="path62"
     sodipodi:nodetypes="cccccccccccccccccccccccccccccccccccccccccccccccccccccccccccccccccsccc"
     style="display:inline"
     inkscape:label="ARCO_PK" />
  <path
     style="display:inline;fill:#54aadf;fill-opacity:1;stroke-width:1.00209"
     d="m 216.79305,250.9562 c -5.93118,-7.18122 -11.62494,-13.56415 -16.35084,-19.17713 -8.25775,-9.80776 -13.81794,-16.62254 -14.37262,-16.63268 -0.94128,-0.0172 -7.48247,8.29874 -16.48121,18.78822 -8.99874,10.48947 -20.72104,24.18526 -20.96491,23.94196 -0.10928,-0.10902 0.44406,-1.89371 2.02852,-5.28918 7.65421,-16.40286 31.4485,-63.47955 32.24132,-63.47955 0.43891,0 10.08996,6.7773 20.029,13.72264 9.93904,6.94536 17.38992,12.30646 17.66875,12.02828 0.27884,-0.27818 10.48777,-37.66516 23.03139,-83.99967 12.54361,-46.334511 23.06474,-86.385921 23.49526,-86.403551 0.4305,-0.0176 14.15813,10.79511 27.9768,21.3523 13.81866,10.55718 24.99354,17.94343 24.40338,17.79284 -1.31513,-0.33556 1.01835,-2.11493 3.37673,-5.20675 5.00047,-6.55559 14.84284,-18.60517 25.65979,-32.16532 14.4843,-18.157552 25.53402,-32.257533 28.67374,-35.590888 0.3109,-0.330078 0.59857,-0.508129 0.74883,-0.621562 0.0531,-0.04014 0.37532,-0.2188081 0.68007,-0.2542101 0.29623,-0.03443 0.57594,0.07397 0.57594,0.07397 0.15549,0.11079 0.32364,0.2295881 0.42866,0.3780921 0.0958,0.135473 0.17952,0.289162 0.2374,0.465681 0.0401,0.122471 0.0661,0.195857 0.0332,0.481095 -0.12046,1.046787 -0.87837,2.73001 -1.32343,3.852115 -8.36723,21.095685 -49.23889,122.352398 -49.43034,122.550938 -0.13408,0.13905 -8.81975,-9.94507 -19.45477,-21.64458 -10.63501,-11.69951 -19.76309,-22.264271 -20.13136,-22.406861 -0.36826,-0.14258 -5.32327,24.404621 -11.31767,54.549351 -18.75617,94.32119 -23.77276,124.22561 -26.13553,133.42766 -0.19537,0.76088 -0.39533,2.00197 -0.69009,2.78956 -0.5258,1.40493 -1.24433,1.40494 -1.62907,1.57707 -0.11186,0.05 -0.70707,0.20554 -1.37292,0.26655 -0.75752,0.0694 -1.59994,0.0328 -1.80986,-0.13085 -0.57126,-0.44533 -2.93131,-2.47476 -20.6906,-23.97698 z"
     id="path107"
     inkscape:label="RAYO_RELLENO"
     sodipodi:nodetypes="ssssssssssssssssssssssssssssssssss" />
  <path
     fill="#f8951d"
     d="m 153.85214,250.46133 c -0.42383,-1.05188 0.23874,-2.25878 1.04983,-3.62973 l 28.94159,-51.00598 c 0.22674,-0.40656 0.76238,-0.51558 1.13,-0.23 l 38.54,29.53 c 0.24997,0.18676 0.60951,0.0686 0.7,-0.23 l 49.3,-166.750001 c 0.13872,-0.46993 0.71928,-0.63882 1.1,-0.32 l 44.38,37.52 c 0.25305,0.21457 0.63516,0.16854 0.83,-0.1 l 50.19,-70.430002 c 0.1848,-0.25754 0.47856,-0.36576 0.57,-0.21 0.25,0.41 -41.7,89.340003 -45.73,97.930003 -0.12047,0.26038 -0.4678,0.31301 -0.66,0.1 l -42.84,-46.500001 c -0.19333,-0.20667 -0.31667,-0.17 -0.37,0.11 l -35.49,198.730001 c -0.11333,0.63333 -0.38333,0.71 -0.81,0.23 l -58.33,-65.21 c -0.17274,-0.18722 -0.46919,-0.17766 -0.62,0.02 z"
     id="path65"
     sodipodi:nodetypes="ccccccccccccccccccccc"
     style="display:none;fill:#f8951d;fill-opacity:1"
     inkscape:label="RAYO_ORANGE" />
  <path
     stroke="#aad5ef"
     vector-effect="non-scaling-stroke"
     d="m 221.70946,165.38172 a 11.52,11.99 88.5 0 0 -12.2875,-11.2022 11.52,11.99 88.5 0 0 -11.6843,11.83 11.52,11.99 88.5 0 0 12.2875,11.2022 11.52,11.99 88.5 0 0 11.6843,-11.83"
     id="path47"
     style="display:none;fill:none;stroke-width:2;stroke-linecap:butt"
     inkscape:label="OJO_IZQ_BORDE" />
  <ellipse
     fill="#54aadf"
     cx="205.3143"
     cy="171.12874"
     transform="rotate(-1.5)"
     rx="11.99"
     ry="11.52"
     id="ellipse74"
     style="display:inline"
     inkscape:label="OJO_IZQ" />
  <path
     stroke="#aad5ef"
     vector-effect="non-scaling-stroke"
     d="m 298.68326,211.97922 a 11.97,11.5 0.4 0 0 -11.8894,-11.5833 11.97,11.5 0.4 0 0 -12.05,11.4161 11.97,11.5 0.4 0 0 11.8894,11.5833 11.97,11.5 0.4 0 0 12.05,-11.4161"
     id="path48"
     style="display:none;fill:none;stroke-width:2;stroke-linecap:butt"
     inkscape:label="OJO_DER_BORDE" />
  <ellipse
     fill="#54aadf"
     cx="288.18585"
     cy="209.88884"
     transform="rotate(0.4)"
     rx="11.97"
     ry="11.5"
     id="ellipse75"
     style="display:inline"
     inkscape:label="OJO_DER" />
  <path
     style="fill:#f8951d;fill-opacity:1;stroke-width:0.25"
     d="m 211.07756,301.52258 c -23.3252,-1.272 -45.25348,-10.81819 -61.64565,-26.83664 -14.69339,-14.3584 -23.79208,-32.29941 -26.69484,-52.63751 -0.55308,-3.87517 -0.64008,-16.48707 -0.13968,-20.25 1.53276,-11.52619 4.28418,-20.57272 9.20029,-30.25 9.06413,-17.8426 23.40931,-31.80904 42.22869,-41.11376 11.97609,-5.92124 23.19575,-8.85746 36.91951,-9.66192 7.76448,-0.45514 17.51214,0.26594 26.03327,1.92579 3.75748,0.73194 4.42222,0.9534 4.42222,1.47333 0,0.4241 -22.47262,84.12614 -22.67507,84.4561 -0.069,0.1125 -0.26053,0.15273 -0.42556,0.0894 -0.16503,-0.0633 -8.28177,-5.7168 -18.03721,-12.56326 -9.75544,-6.84646 -17.969,-12.49261 -18.25236,-12.547 -0.28337,-0.0544 -0.62765,0.0508 -0.76508,0.23371 -0.13743,0.18293 -8.34121,16.5695 -18.23063,36.4146 -17.45828,35.03354 -17.98076,36.12324 -17.98076,37.50111 0,2.68205 1.63614,4.20585 4.28044,3.98657 0.97845,-0.0811 1.61193,-0.31014 2.32541,-0.8406 0.53933,-0.40099 3.20315,-3.37283 5.91959,-6.60408 7.6518,-9.10195 26.01237,-30.37368 28.34755,-32.84219 0.42717,-0.45156 0.66268,-0.20897 7.03847,7.25 11.45524,13.40137 42.18529,49.86299 48.08021,57.04782 2.55731,3.11689 4.28487,3.93543 7.875,3.73125 3.46058,-0.19681 5.20055,-1.31672 6.12747,-3.94388 0.213,-0.60371 4.15033,-20.17099 8.74961,-43.48283 12.76483,-64.69955 18.76269,-94.73327 18.95754,-94.92812 0.24197,-0.24197 2.19832,1.69264 5.46576,5.40504 12.53945,14.24708 20.06818,31.03475 22.05996,49.18961 0.49827,4.54169 0.50471,13.31292 0.0132,17.9483 -1.82017,17.16476 -8.52036,33.3939 -19.43464,47.07439 -3.09418,3.87839 -10.09444,10.9121 -13.79879,13.86472 -13.99346,11.15374 -30.34084,18.00242 -48.46923,20.30601 -2.84448,0.36145 -11.51658,0.91097 -13.17084,0.83459 -0.34375,-0.0159 -2.28947,-0.11963 -4.32381,-0.23056 z m 79.67863,-78.71271 c 8.11823,-2.81776 10.61159,-12.616 4.76909,-18.74125 -4.79894,-5.03119 -13.20739,-4.987 -17.7981,0.0935 -5.97582,6.61343 -2.72389,16.77456 6.08271,19.00634 1.89517,0.48027 4.98965,0.32051 6.9463,-0.35863 z m -77.99021,-45.89424 c 3.93892,-1.02595 6.92876,-3.6963 8.38861,-7.4922 0.77072,-2.004 0.78819,-5.33732 0.039,-7.43327 -1.88129,-5.2629 -7.50775,-8.5865 -13.15792,-7.77251 -9.73947,1.40311 -13.82891,12.72661 -7.02721,19.45806 2.47998,2.45437 5.12879,3.57449 8.52793,3.60627 0.96798,0.009 2.42132,-0.15581 3.22963,-0.36635 z"
     id="path1" />
</svg>
